<svg xmlns="http://www.w3.org/2000/svg" xmlns:xlink="http://www.w3.org/1999/xlink" width="500" zoomAndPan="magnify" viewBox="0 0 375 374.999991" height="500" preserveAspectRatio="xMidYMid meet" version="1.0"><defs><clipPath id="76b4cc88b8"><path d="M 187.5 0 C 83.945312 0 0 83.945312 0 187.5 C 0 291.054688 83.945312 375 187.5 375 C 291.054688 375 375 291.054688 375 187.5 C 375 83.945312 291.054688 0 187.5 0 Z M 187.5 0 " clip-rule="nonzero"/></clipPath><clipPath id="33a86bee92"><path d="M 24.398438 37.496094 L 350.1875 37.496094 L 350.1875 259.761719 L 24.398438 259.761719 Z M 24.398438 37.496094 " clip-rule="nonzero"/></clipPath><clipPath id="8d79125dd9"><path d="M 130.765625 148.53125 L 244.230469 148.53125 L 244.230469 259.15625 L 130.765625 259.15625 Z M 130.765625 148.53125 " clip-rule="nonzero"/></clipPath></defs><g clip-path="url(#76b4cc88b8)"><rect x="-37.5" width="450" fill="#1f628e" y="-37.499999" height="449.999989" fill-opacity="1"/></g><g clip-path="url(#33a86bee92)"><path fill="#ffffff" d="M 350.152344 179.257812 L 350.152344 221.058594 C 350.152344 225.835938 346.296875 229.707031 341.523438 229.730469 C 341.496094 229.730469 341.472656 229.730469 341.445312 229.730469 L 313.160156 231.707031 C 312.546875 231.75 312.035156 232.179688 311.882812 232.769531 C 309.527344 241.78125 306.222656 250.40625 302.070312 258.53125 C 302.070312 258.539062 302.066406 258.542969 302.0625 258.542969 C 301.660156 259.320312 300.65625 259.546875 299.960938 259.019531 L 273.957031 239.21875 C 273.4375 238.824219 273.253906 238.125 273.511719 237.527344 C 274.984375 234.148438 276.261719 230.664062 277.332031 227.09375 C 278.703125 222.519531 279.730469 217.800781 280.390625 212.96875 C 280.785156 210.066406 281.050781 207.128906 281.175781 204.15625 C 281.230469 202.832031 281.261719 201.496094 281.261719 200.15625 C 281.261719 197.585938 281.15625 195.039062 280.953125 192.519531 C 278.738281 165.0625 264.699219 140.949219 243.933594 125.273438 C 228.234375 113.421875 208.6875 106.394531 187.5 106.394531 C 135.714844 106.394531 93.738281 148.375 93.738281 200.15625 C 93.738281 213.441406 96.5 226.078125 101.484375 237.527344 C 101.742188 238.128906 101.554688 238.824219 101.039062 239.21875 L 98.597656 241.078125 L 75.050781 259.007812 C 74.351562 259.539062 73.335938 259.3125 72.929688 258.53125 C 72.878906 258.4375 72.832031 258.34375 72.78125 258.246094 C 72.714844 258.121094 72.652344 257.996094 72.589844 257.867188 C 70.539062 253.789062 68.695312 249.589844 67.082031 245.28125 C 65.554688 241.203125 64.230469 237.03125 63.117188 232.769531 C 62.960938 232.179688 62.449219 231.75 61.835938 231.707031 L 33.550781 229.730469 C 33.527344 229.730469 33.503906 229.730469 33.472656 229.730469 C 28.707031 229.707031 24.84375 225.835938 24.84375 221.058594 L 24.84375 179.257812 C 24.84375 174.480469 28.707031 170.605469 33.472656 170.589844 C 33.503906 170.589844 33.527344 170.585938 33.550781 170.585938 L 61.835938 168.605469 C 62.449219 168.566406 62.960938 168.136719 63.117188 167.542969 C 66.113281 156.085938 70.644531 145.25 76.492188 135.273438 C 76.800781 134.746094 76.742188 134.082031 76.339844 133.617188 L 57.726562 112.210938 C 57.710938 112.191406 57.695312 112.175781 57.675781 112.15625 C 54.316406 108.769531 54.328125 103.300781 57.703125 99.925781 L 75.71875 81.90625 L 87.265625 70.363281 C 90.640625 66.988281 96.113281 66.976562 99.496094 70.335938 C 99.515625 70.355469 99.53125 70.371094 99.554688 70.386719 L 120.960938 89 C 121.417969 89.402344 122.089844 89.457031 122.617188 89.152344 C 132.59375 83.304688 143.425781 78.769531 154.882812 75.773438 C 155.476562 75.617188 155.90625 75.105469 155.949219 74.496094 L 157.921875 46.207031 C 157.925781 46.183594 157.925781 46.15625 157.925781 46.132812 C 157.949219 41.363281 161.820312 37.5 166.59375 37.5 L 208.402344 37.5 C 213.179688 37.5 217.050781 41.363281 217.070312 46.132812 C 217.070312 46.15625 217.070312 46.183594 217.074219 46.207031 L 219.050781 74.496094 C 219.089844 75.105469 219.519531 75.617188 220.113281 75.773438 C 231.570312 78.769531 242.402344 83.304688 252.382812 89.152344 C 252.910156 89.457031 253.574219 89.402344 254.035156 89 L 257.648438 85.863281 L 275.445312 70.386719 C 275.464844 70.371094 275.484375 70.355469 275.5 70.335938 C 278.886719 66.976562 284.359375 66.988281 287.734375 70.363281 L 299.277344 81.90625 L 317.292969 99.925781 C 320.667969 103.300781 320.679688 108.769531 317.320312 112.15625 C 317.300781 112.175781 317.289062 112.191406 317.269531 112.210938 L 298.65625 133.617188 C 298.257812 134.082031 298.195312 134.746094 298.503906 135.273438 C 303.554688 143.894531 307.628906 153.148438 310.574219 162.898438 C 311.039062 164.4375 311.476562 165.984375 311.882812 167.542969 C 312.035156 168.136719 312.550781 168.566406 313.160156 168.605469 L 317.351562 168.902344 L 320.851562 169.144531 L 331.332031 169.878906 L 341.445312 170.585938 C 341.472656 170.585938 341.496094 170.589844 341.523438 170.589844 C 346.296875 170.605469 350.152344 174.480469 350.152344 179.257812 " fill-opacity="1" fill-rule="nonzero"/></g><g clip-path="url(#8d79125dd9)"><path fill="#ffffff" d="M 230.199219 148.53125 L 231.625 151.378906 L 216.679688 159.917969 C 216.679688 167.035156 219.523438 172.730469 225.929688 176.289062 L 240.875 167.746094 L 241.585938 169.171875 C 238.027344 179.847656 230.914062 186.960938 216.679688 186.960938 C 213.121094 186.960938 202.445312 197.636719 196.75 203.332031 L 185.363281 191.945312 C 191.058594 186.25 203.867188 173.441406 203.867188 169.882812 C 203.867188 157.070312 207.425781 148.53125 230.199219 148.53125 Z M 141.238281 152.089844 L 155.472656 162.054688 L 156.898438 167.746094 L 198.175781 209.023438 L 203.867188 205.464844 L 206.714844 208.3125 C 206.714844 216.851562 216.679688 221.125 220.949219 221.125 L 244.433594 244.609375 C 244.433594 251.726562 236.605469 259.554688 229.488281 259.554688 L 206.003906 236.070312 C 206.003906 231.796875 201.734375 221.835938 193.191406 221.835938 L 190.347656 218.988281 L 193.90625 213.296875 L 152.625 172.015625 L 146.933594 170.59375 L 136.96875 156.359375 Z M 176.824219 200.484375 L 188.210938 211.871094 C 179.671875 220.410156 168.285156 231.796875 168.285156 235.355469 C 168.285156 248.167969 164.726562 256.707031 141.953125 256.707031 L 140.527344 253.859375 L 155.472656 245.320312 C 155.472656 238.203125 152.625 232.511719 146.222656 228.953125 L 131.277344 237.492188 L 130.566406 236.070312 C 134.121094 225.394531 141.238281 218.277344 155.472656 218.277344 C 159.03125 218.277344 168.285156 209.023438 176.824219 200.484375 Z M 176.824219 200.484375 " fill-opacity="1" fill-rule="nonzero"/></g></svg>