<svg xmlns="http://www.w3.org/2000/svg" xmlns:xlink="http://www.w3.org/1999/xlink" width="500" zoomAndPan="magnify" viewBox="0 0 375 374.999991" height="500" preserveAspectRatio="xMidYMid meet" version="1.0"><defs><g/><clipPath id="2f5159607f"><path d="M 187.5 0 C 83.945312 0 0 83.945312 0 187.5 C 0 291.054688 83.945312 375 187.5 375 C 291.054688 375 375 291.054688 375 187.5 C 375 83.945312 291.054688 0 187.5 0 Z M 187.5 0 " clip-rule="nonzero"/></clipPath><clipPath id="055e4d8ad8"><path d="M 67.738281 71.152344 L 307.722656 71.152344 L 307.722656 235.09375 L 67.738281 235.09375 Z M 67.738281 71.152344 " clip-rule="nonzero"/></clipPath><clipPath id="0eb79bdeee"><path d="M 145.625 153.203125 L 229.367188 153.203125 L 229.367188 235.171875 L 145.625 235.171875 Z M 145.625 153.203125 " clip-rule="nonzero"/></clipPath></defs><g clip-path="url(#2f5159607f)"><rect x="-37.5" width="450" fill="#1f628e" y="-37.499999" height="449.999989" fill-opacity="1"/></g><g clip-path="url(#055e4d8ad8)"><path fill="#ffffff" d="M 307.695312 175.90625 L 307.695312 206.800781 C 307.695312 210.328125 304.84375 213.1875 301.316406 213.203125 C 301.296875 213.203125 301.277344 213.203125 301.257812 213.207031 L 280.355469 214.667969 C 279.90625 214.699219 279.527344 215.015625 279.414062 215.453125 C 277.671875 222.113281 275.230469 228.484375 272.160156 234.488281 C 272.160156 234.492188 272.160156 234.496094 272.15625 234.5 C 271.859375 235.074219 271.117188 235.238281 270.601562 234.847656 L 251.386719 220.21875 C 251.003906 219.925781 250.867188 219.410156 251.058594 218.964844 C 252.148438 216.46875 253.089844 213.894531 253.882812 211.257812 C 254.894531 207.878906 255.652344 204.390625 256.140625 200.820312 C 256.433594 198.675781 256.628906 196.503906 256.722656 194.304688 C 256.761719 193.328125 256.785156 192.34375 256.785156 191.351562 C 256.785156 189.453125 256.707031 187.570312 256.554688 185.707031 C 254.921875 165.417969 244.546875 147.601562 229.199219 136.015625 C 217.597656 127.257812 203.15625 122.066406 187.5 122.066406 C 149.230469 122.066406 118.210938 153.085938 118.210938 191.351562 C 118.210938 201.171875 120.253906 210.507812 123.933594 218.96875 C 124.125 219.410156 123.988281 219.925781 123.605469 220.21875 L 121.804688 221.589844 L 104.402344 234.839844 C 103.886719 235.234375 103.132812 235.066406 102.835938 234.488281 C 102.800781 234.417969 102.761719 234.347656 102.726562 234.277344 C 102.675781 234.183594 102.628906 234.09375 102.582031 233.996094 C 101.066406 230.984375 99.707031 227.882812 98.515625 224.695312 C 97.386719 221.683594 96.40625 218.601562 95.582031 215.453125 C 95.46875 215.015625 95.089844 214.699219 94.640625 214.667969 L 73.738281 213.207031 C 73.71875 213.203125 73.699219 213.203125 73.679688 213.203125 C 70.15625 213.1875 67.300781 210.328125 67.300781 206.800781 L 67.300781 175.90625 C 67.300781 172.378906 70.15625 169.515625 73.679688 169.503906 C 73.699219 169.503906 73.71875 169.5 73.738281 169.5 L 94.640625 168.039062 C 95.089844 168.007812 95.46875 167.691406 95.582031 167.25 C 97.796875 158.785156 101.148438 150.777344 105.46875 143.40625 C 105.695312 143.015625 105.652344 142.523438 105.355469 142.183594 L 91.601562 126.363281 C 91.589844 126.347656 91.578125 126.335938 91.5625 126.324219 C 89.082031 123.820312 89.089844 119.777344 91.585938 117.285156 L 113.429688 95.441406 C 115.921875 92.945312 119.964844 92.9375 122.46875 95.421875 C 122.480469 95.433594 122.492188 95.445312 122.507812 95.457031 L 138.328125 109.210938 C 138.667969 109.507812 139.160156 109.550781 139.554688 109.324219 C 146.925781 105.003906 154.929688 101.652344 163.398438 99.4375 C 163.835938 99.324219 164.152344 98.945312 164.183594 98.492188 L 165.644531 77.589844 C 165.644531 77.570312 165.644531 77.554688 165.644531 77.535156 C 165.660156 74.007812 168.523438 71.15625 172.050781 71.15625 L 202.945312 71.15625 C 206.472656 71.15625 209.335938 74.007812 209.351562 77.535156 C 209.351562 77.554688 209.351562 77.570312 209.351562 77.589844 L 210.8125 98.492188 C 210.84375 98.945312 211.160156 99.324219 211.597656 99.4375 C 220.066406 101.652344 228.070312 105.003906 235.445312 109.324219 C 235.835938 109.550781 236.324219 109.507812 236.667969 109.210938 L 239.335938 106.890625 L 252.488281 95.457031 C 252.503906 95.445312 252.515625 95.433594 252.527344 95.421875 C 255.03125 92.9375 259.074219 92.945312 261.566406 95.441406 L 283.410156 117.285156 C 285.90625 119.777344 285.914062 123.820312 283.433594 126.324219 C 283.417969 126.335938 283.40625 126.347656 283.394531 126.363281 L 269.640625 142.183594 C 269.34375 142.523438 269.300781 143.015625 269.527344 143.40625 C 273.257812 149.773438 276.269531 156.617188 278.445312 163.820312 C 278.789062 164.957031 279.113281 166.101562 279.414062 167.25 C 279.527344 167.691406 279.90625 168.007812 280.355469 168.039062 L 283.453125 168.253906 L 286.039062 168.4375 L 293.785156 168.976562 L 301.257812 169.5 C 301.277344 169.5 301.296875 169.503906 301.316406 169.503906 C 304.84375 169.515625 307.695312 172.378906 307.695312 175.90625 " fill-opacity="1" fill-rule="nonzero"/></g><g clip-path="url(#0eb79bdeee)"><path fill="#ffffff" d="M 219.050781 153.203125 L 220.101562 155.308594 L 209.058594 161.617188 C 209.058594 166.878906 211.164062 171.085938 215.894531 173.714844 L 226.941406 167.402344 L 227.464844 168.457031 C 224.835938 176.34375 219.578125 181.601562 209.058594 181.601562 C 206.429688 181.601562 198.539062 189.492188 194.332031 193.699219 L 185.917969 185.285156 C 190.125 181.078125 199.59375 171.609375 199.59375 168.980469 C 199.59375 159.515625 202.222656 153.203125 219.050781 153.203125 Z M 153.3125 155.832031 L 163.832031 163.195312 L 164.882812 167.402344 L 195.386719 197.90625 L 199.59375 195.277344 L 201.695312 197.378906 C 201.695312 203.691406 209.058594 206.847656 212.214844 206.847656 L 229.570312 224.203125 C 229.570312 229.460938 223.785156 235.246094 218.523438 235.246094 L 201.171875 217.890625 C 201.171875 214.734375 198.015625 207.371094 191.703125 207.371094 L 189.601562 205.269531 L 192.230469 201.0625 L 161.726562 170.558594 L 157.519531 169.507812 L 150.15625 158.988281 Z M 179.609375 191.59375 L 188.023438 200.011719 C 181.710938 206.320312 173.296875 214.734375 173.296875 217.367188 C 173.296875 226.832031 170.667969 233.144531 153.839844 233.144531 L 152.785156 231.039062 L 163.832031 224.726562 C 163.832031 219.46875 161.726562 215.261719 156.992188 212.632812 L 145.949219 218.941406 L 145.421875 217.890625 C 148.054688 210.003906 153.3125 204.742188 163.832031 204.742188 C 166.460938 204.742188 173.296875 197.90625 179.609375 191.59375 Z M 179.609375 191.59375 " fill-opacity="1" fill-rule="nonzero"/></g><g fill="#ffffff" fill-opacity="1"><g transform="translate(79.451913, 291.278275)"><g><path d="M 8.546875 -36.34375 C 9.234375 -36.34375 10.390625 -36.390625 12.015625 -36.484375 C 14.273438 -36.628906 16.007812 -36.703125 17.21875 -36.703125 C 22.09375 -36.703125 25.640625 -35.894531 27.859375 -34.28125 C 30.078125 -32.664062 31.1875 -30.351562 31.1875 -27.34375 C 31.1875 -25.351562 30.71875 -23.617188 29.78125 -22.140625 C 28.851562 -20.671875 27.507812 -19.691406 25.75 -19.203125 C 27.144531 -19.023438 28.40625 -18.578125 29.53125 -17.859375 C 30.65625 -17.140625 31.535156 -16.191406 32.171875 -15.015625 C 32.804688 -13.835938 33.125 -12.503906 33.125 -11.015625 C 33.125 -8.648438 32.65625 -6.632812 31.71875 -4.96875 C 30.789062 -3.3125 29.21875 -2.015625 27 -1.078125 C 24.78125 -0.140625 21.796875 0.328125 18.046875 0.328125 C 15.515625 0.328125 12.40625 0.21875 8.71875 0 L 4.125 0 L 4.125 -36.375 Z M 16.671875 -21.375 C 18.671875 -21.375 20.144531 -21.765625 21.09375 -22.546875 C 22.039062 -23.328125 22.515625 -24.644531 22.515625 -26.5 C 22.515625 -27.96875 22 -29.015625 20.96875 -29.640625 C 19.9375 -30.273438 18.367188 -30.59375 16.265625 -30.59375 C 15.753906 -30.59375 15.15625 -30.566406 14.46875 -30.515625 C 13.78125 -30.472656 13.34375 -30.394531 13.15625 -30.28125 L 13.15625 -21.5625 C 13.757812 -21.4375 14.929688 -21.375 16.671875 -21.375 Z M 17.59375 -5.609375 C 19.71875 -5.609375 21.285156 -6.023438 22.296875 -6.859375 C 23.304688 -7.703125 23.8125 -9.0625 23.8125 -10.9375 C 23.8125 -12.539062 23.289062 -13.742188 22.25 -14.546875 C 21.207031 -15.359375 19.554688 -15.765625 17.296875 -15.765625 C 16.523438 -15.765625 15.707031 -15.75 14.84375 -15.71875 C 13.976562 -15.6875 13.414062 -15.632812 13.15625 -15.5625 L 13.15625 -6.15625 C 13.445312 -5.96875 14.035156 -5.828125 14.921875 -5.734375 C 15.816406 -5.648438 16.707031 -5.609375 17.59375 -5.609375 Z M 17.59375 -5.609375 "/></g></g></g><g fill="#ffffff" fill-opacity="1"><g transform="translate(114.359543, 291.278275)"><g><path d="M 13.375 -36.34375 L 13.375 -6.859375 L 25.359375 -6.859375 L 25.359375 0 L 4.125 0 L 4.125 -36.34375 Z M 13.375 -36.34375 "/></g></g></g><g fill="#ffffff" fill-opacity="1"><g transform="translate(141.14912, 291.278275)"><g><path d="M 13.59375 -36.34375 L 13.59375 0 L 4.421875 0 L 4.421875 -36.34375 Z M 13.59375 -36.34375 "/></g></g></g><g fill="#ffffff" fill-opacity="1"><g transform="translate(159.152097, 291.278275)"><g><path d="M 34.8125 -36.34375 L 34.8125 0 L 25.671875 0 L 13.890625 -19.46875 L 11.25 -24.984375 L 12.375 -15.71875 L 12.375 0 L 4.125 0 L 4.125 -36.34375 L 12.625 -36.34375 L 25.03125 -16.40625 L 27.5625 -11.109375 L 26.578125 -20.34375 L 26.578125 -36.34375 Z M 34.8125 -36.34375 "/></g></g></g><g fill="#ffffff" fill-opacity="1"><g transform="translate(198.094877, 291.278275)"><g><path d="M 20.625 -36.734375 C 22.332031 -36.734375 23.75 -36.632812 24.875 -36.4375 C 26.007812 -36.25 27.226562 -35.988281 28.53125 -35.65625 C 29.425781 -35.425781 29.960938 -35.296875 30.140625 -35.265625 L 28.9375 -27.421875 C 28.09375 -27.992188 27.09375 -28.484375 25.9375 -28.890625 C 24.789062 -29.304688 23.269531 -29.515625 21.375 -29.515625 C 19.5 -29.515625 17.8125 -29.09375 16.3125 -28.25 C 14.8125 -27.40625 13.628906 -26.160156 12.765625 -24.515625 C 11.898438 -22.878906 11.46875 -20.925781 11.46875 -18.65625 C 11.46875 -16.226562 11.851562 -14.113281 12.625 -12.3125 C 13.40625 -10.519531 14.566406 -9.125 16.109375 -8.125 C 17.660156 -7.132812 19.539062 -6.640625 21.75 -6.640625 C 22.726562 -6.640625 23.75 -6.757812 24.8125 -7 C 25.875 -7.238281 26.835938 -7.539062 27.703125 -7.90625 C 28.578125 -8.269531 29.222656 -8.628906 29.640625 -8.984375 L 29.65625 -1.53125 C 28.289062 -0.957031 26.925781 -0.492188 25.5625 -0.140625 C 24.195312 0.203125 22.585938 0.375 20.734375 0.375 C 16.785156 0.375 13.410156 -0.375 10.609375 -1.875 C 7.804688 -3.375 5.675781 -5.515625 4.21875 -8.296875 C 2.757812 -11.078125 2.03125 -14.34375 2.03125 -18.09375 C 2.03125 -22.082031 2.84375 -25.472656 4.46875 -28.265625 C 6.09375 -31.054688 8.304688 -33.164062 11.109375 -34.59375 C 13.921875 -36.019531 17.09375 -36.734375 20.625 -36.734375 Z M 20.625 -36.734375 "/></g></g></g><g fill="#ffffff" fill-opacity="1"><g transform="translate(229.277753, 291.278275)"><g><path d="M 3.390625 -36.34375 L 12.421875 -36.34375 L 12.34375 -16.359375 C 12.332031 -13.859375 12.550781 -11.910156 13 -10.515625 C 13.457031 -9.117188 14.128906 -8.144531 15.015625 -7.59375 C 15.910156 -7.050781 17.070312 -6.78125 18.5 -6.78125 C 19.914062 -6.78125 21.070312 -7.066406 21.96875 -7.640625 C 22.863281 -8.210938 23.53125 -9.195312 23.96875 -10.59375 C 24.414062 -12 24.640625 -13.921875 24.640625 -16.359375 L 24.640625 -36.34375 L 33.625 -36.34375 L 33.625 -15.09375 C 33.625 -10.09375 32.398438 -6.265625 29.953125 -3.609375 C 27.515625 -0.953125 23.738281 0.375 18.625 0.375 C 13.25 0.375 9.34375 -0.984375 6.90625 -3.703125 C 4.476562 -6.421875 3.273438 -10.265625 3.296875 -15.234375 Z M 3.390625 -36.34375 "/></g></g></g><g fill="#ffffff" fill-opacity="1"><g transform="translate(266.167143, 291.278275)"><g><path d="M 4.234375 -8.9375 C 5.234375 -8.363281 6.628906 -7.832031 8.421875 -7.34375 C 10.210938 -6.851562 11.984375 -6.609375 13.734375 -6.609375 C 15.484375 -6.609375 16.753906 -6.851562 17.546875 -7.34375 C 18.347656 -7.832031 18.75 -8.613281 18.75 -9.6875 C 18.75 -10.4375 18.515625 -11.082031 18.046875 -11.625 C 17.585938 -12.164062 16.90625 -12.6875 16 -13.1875 C 15.09375 -13.695312 13.546875 -14.46875 11.359375 -15.5 C 8.734375 -16.738281 6.65625 -18.25 5.125 -20.03125 C 3.601562 -21.8125 2.84375 -24.054688 2.84375 -26.765625 C 2.84375 -28.921875 3.378906 -30.742188 4.453125 -32.234375 C 5.523438 -33.734375 7.035156 -34.859375 8.984375 -35.609375 C 10.941406 -36.359375 13.21875 -36.734375 15.8125 -36.734375 C 18.226562 -36.734375 20.316406 -36.507812 22.078125 -36.0625 C 23.847656 -35.625 25.171875 -35.15625 26.046875 -34.65625 L 24.640625 -27.8125 C 23.859375 -28.425781 22.695312 -28.96875 21.15625 -29.4375 C 19.625 -29.90625 18.101562 -30.140625 16.59375 -30.140625 C 14.925781 -30.140625 13.671875 -29.867188 12.828125 -29.328125 C 11.992188 -28.785156 11.578125 -28.035156 11.578125 -27.078125 C 11.578125 -26.359375 11.785156 -25.71875 12.203125 -25.15625 C 12.628906 -24.601562 13.28125 -24.066406 14.15625 -23.546875 C 15.03125 -23.035156 16.265625 -22.414062 17.859375 -21.6875 C 20.140625 -20.664062 21.988281 -19.648438 23.40625 -18.640625 C 24.832031 -17.640625 25.925781 -16.472656 26.6875 -15.140625 C 27.457031 -13.816406 27.84375 -12.234375 27.84375 -10.390625 C 27.84375 -8.203125 27.328125 -6.300781 26.296875 -4.6875 C 25.273438 -3.070312 23.769531 -1.820312 21.78125 -0.9375 C 19.789062 -0.0625 17.394531 0.375 14.59375 0.375 C 12.96875 0.375 11.363281 0.253906 9.78125 0.015625 C 8.195312 -0.210938 6.816406 -0.503906 5.640625 -0.859375 C 4.460938 -1.210938 3.617188 -1.546875 3.109375 -1.859375 Z M 4.234375 -8.9375 "/></g></g></g></svg>