<svg xmlns="http://www.w3.org/2000/svg" xmlns:xlink="http://www.w3.org/1999/xlink" width="500" zoomAndPan="magnify" viewBox="0 0 375 374.999991" height="500" preserveAspectRatio="xMidYMid meet" version="1.0"><defs><clipPath id="99884b6458"><path d="M 187.5 0 C 83.945312 0 0 83.945312 0 187.5 C 0 291.054688 83.945312 375 187.5 375 C 291.054688 375 375 291.054688 375 187.5 C 375 83.945312 291.054688 0 187.5 0 Z M 187.5 0 " clip-rule="nonzero"/></clipPath><clipPath id="2546967832"><path d="M 24.6875 37.5 L 350.1875 37.5 L 350.1875 259.5 L 24.6875 259.5 Z M 24.6875 37.5 " clip-rule="nonzero"/></clipPath><clipPath id="be4cf65050"><path d="M 130.5625 148.53125 L 244.433594 148.53125 L 244.433594 259.53125 L 130.5625 259.53125 Z M 130.5625 148.53125 " clip-rule="nonzero"/></clipPath></defs><g clip-path="url(#99884b6458)"><rect x="-37.5" width="450" fill="#b3c7ff" y="-37.499999" height="449.999989" fill-opacity="1"/></g><g clip-path="url(#2546967832)"><path fill="#000000" d="M 350.148438 179.257812 L 350.148438 221.0625 C 350.148438 225.835938 346.292969 229.707031 341.519531 229.730469 C 341.492188 229.730469 341.46875 229.730469 341.441406 229.734375 L 313.15625 231.707031 C 312.542969 231.753906 312.035156 232.179688 311.878906 232.773438 C 309.523438 241.785156 306.21875 250.40625 302.066406 258.53125 C 302.066406 258.539062 302.0625 258.542969 302.058594 258.546875 C 301.65625 259.324219 300.652344 259.546875 299.957031 259.019531 L 273.953125 239.222656 C 273.4375 238.824219 273.25 238.125 273.511719 237.527344 C 274.984375 234.148438 276.257812 230.664062 277.328125 227.09375 C 278.699219 222.523438 279.726562 217.804688 280.390625 212.96875 C 280.785156 210.070312 281.046875 207.132812 281.171875 204.15625 C 281.230469 202.832031 281.257812 201.5 281.257812 200.15625 C 281.257812 197.589844 281.152344 195.039062 280.949219 192.519531 C 278.738281 165.066406 264.699219 140.953125 243.929688 125.277344 C 228.230469 113.425781 208.683594 106.398438 187.496094 106.398438 C 135.710938 106.398438 93.738281 148.378906 93.738281 200.15625 C 93.738281 213.445312 96.5 226.078125 101.480469 237.53125 C 101.742188 238.128906 101.554688 238.824219 101.039062 239.222656 L 98.597656 241.078125 L 75.050781 259.007812 C 74.351562 259.539062 73.335938 259.3125 72.929688 258.53125 C 72.878906 258.4375 72.832031 258.34375 72.78125 258.25 C 72.714844 258.121094 72.652344 257.996094 72.589844 257.867188 C 70.539062 253.792969 68.695312 249.589844 67.082031 245.28125 C 65.554688 241.207031 64.230469 237.035156 63.117188 232.773438 C 62.960938 232.179688 62.449219 231.753906 61.835938 231.707031 L 33.550781 229.734375 C 33.527344 229.730469 33.503906 229.730469 33.472656 229.730469 C 28.707031 229.707031 24.84375 225.835938 24.84375 221.0625 L 24.84375 179.257812 C 24.84375 174.484375 28.707031 170.609375 33.472656 170.589844 C 33.503906 170.589844 33.527344 170.585938 33.550781 170.585938 L 61.835938 168.609375 C 62.449219 168.566406 62.960938 168.140625 63.117188 167.546875 C 66.113281 156.089844 70.644531 145.253906 76.492188 135.277344 C 76.800781 134.75 76.742188 134.082031 76.339844 133.621094 L 57.726562 112.214844 C 57.710938 112.195312 57.695312 112.175781 57.675781 112.160156 C 54.316406 108.769531 54.328125 103.304688 57.703125 99.925781 L 75.71875 81.910156 L 87.265625 70.367188 C 90.640625 66.992188 96.113281 66.980469 99.496094 70.339844 C 99.515625 70.359375 99.53125 70.375 99.550781 70.390625 L 120.960938 89.003906 C 121.417969 89.40625 122.089844 89.460938 122.617188 89.152344 C 132.59375 83.308594 143.425781 78.773438 154.882812 75.777344 C 155.476562 75.621094 155.90625 75.109375 155.949219 74.5 L 157.921875 46.210938 C 157.925781 46.1875 157.925781 46.160156 157.925781 46.140625 C 157.945312 41.367188 161.820312 37.503906 166.59375 37.503906 L 208.402344 37.503906 C 213.175781 37.503906 217.046875 41.367188 217.070312 46.140625 C 217.070312 46.160156 217.070312 46.1875 217.074219 46.210938 L 219.046875 74.5 C 219.089844 75.109375 219.519531 75.621094 220.113281 75.777344 C 231.570312 78.773438 242.402344 83.308594 252.382812 89.152344 C 252.90625 89.460938 253.570312 89.40625 254.035156 89.003906 L 257.648438 85.863281 L 275.441406 70.390625 C 275.464844 70.375 275.480469 70.359375 275.5 70.339844 C 278.882812 66.980469 284.355469 66.992188 287.730469 70.367188 L 299.277344 81.910156 L 317.292969 99.925781 C 320.667969 103.304688 320.675781 108.769531 317.320312 112.160156 C 317.296875 112.175781 317.285156 112.195312 317.265625 112.214844 L 298.652344 133.621094 C 298.253906 134.082031 298.195312 134.75 298.5 135.277344 C 303.550781 143.894531 307.625 153.152344 310.570312 162.902344 C 311.035156 164.441406 311.472656 165.988281 311.878906 167.546875 C 312.035156 168.140625 312.546875 168.566406 313.15625 168.609375 L 317.347656 168.902344 L 320.847656 169.148438 L 331.332031 169.878906 L 341.441406 170.585938 C 341.46875 170.585938 341.492188 170.589844 341.519531 170.589844 C 346.292969 170.609375 350.148438 174.484375 350.148438 179.257812 " fill-opacity="1" fill-rule="nonzero"/></g><g clip-path="url(#be4cf65050)"><path fill="#000000" d="M 230.179688 148.53125 L 231.605469 151.378906 L 216.644531 159.917969 C 216.644531 167.03125 219.492188 172.722656 225.90625 176.28125 L 240.867188 167.742188 L 241.582031 169.167969 C 238.019531 179.839844 230.894531 186.953125 216.644531 186.953125 C 213.082031 186.953125 202.394531 197.628906 196.695312 203.320312 L 185.292969 191.933594 C 190.996094 186.242188 203.820312 173.433594 203.820312 169.878906 C 203.820312 157.070312 207.382812 148.53125 230.179688 148.53125 Z M 141.121094 152.089844 L 155.371094 162.050781 L 156.792969 167.742188 L 198.121094 209.011719 L 203.820312 205.453125 L 206.667969 208.300781 C 206.667969 216.839844 216.644531 221.109375 220.917969 221.109375 L 244.429688 244.589844 C 244.429688 251.703125 236.59375 259.53125 229.46875 259.53125 L 205.957031 236.050781 C 205.957031 231.78125 201.683594 221.820312 193.132812 221.820312 L 190.28125 218.972656 L 193.84375 213.28125 L 152.519531 172.011719 L 146.820312 170.589844 L 136.84375 156.359375 Z M 176.746094 200.472656 L 188.144531 211.859375 C 179.59375 220.398438 168.195312 231.78125 168.195312 235.339844 C 168.195312 248.148438 164.632812 256.683594 141.832031 256.683594 L 140.40625 253.839844 L 155.371094 245.300781 C 155.371094 238.183594 152.519531 232.492188 146.105469 228.933594 L 131.144531 237.472656 L 130.433594 236.050781 C 133.996094 225.378906 141.121094 218.261719 155.371094 218.261719 C 158.933594 218.261719 168.195312 209.011719 176.746094 200.472656 Z M 176.746094 200.472656 " fill-opacity="1" fill-rule="nonzero"/></g></svg>